<svg width="1763" height="1377" viewBox="0 0 1763 1377" fill="none" xmlns="http://www.w3.org/2000/svg">
<rect width="1763" height="1377" fill="#F5F5F5"/>
<path d="M346.042 375.59V480.915" stroke="#FF0000" stroke-width="2" stroke-linecap="round"/>
<path d="M282 495L346 480.99" stroke="#FF0000" stroke-width="2" stroke-linecap="round"/>
<path d="M282.925 495.78V956.709" stroke="#FF0000" stroke-width="2" stroke-linecap="round"/>
<path d="M283.123 956.504L342 967" stroke="#FF0000" stroke-width="2" stroke-linecap="round"/>
<path d="M342.675 967.67V1076.47" stroke="#FF0000" stroke-width="2" stroke-linecap="round"/>
<path d="M343.248 1076.47H619.249" stroke="#FF0000" stroke-width="2" stroke-linecap="round"/>
<path d="M619.971 971.923V1075.27" stroke="#FF0000" stroke-width="2" stroke-linecap="round"/>
<path d="M620.57 1049.81H753.57" stroke="#FF0000" stroke-width="2" stroke-linecap="round"/>
<path d="M754.468 972.223V1077.06" stroke="#FF0000" stroke-width="2" stroke-linecap="round"/>
<path d="M754.693 1077.06H1032.08" stroke="#FF0000" stroke-width="2" stroke-linecap="round"/>
<path d="M1032.67 972.822V1076.47" stroke="#FF0000" stroke-width="2" stroke-linecap="round"/>
<path d="M1033.8 1051.6H1169.19" stroke="#FF0000" stroke-width="2" stroke-linecap="round"/>
<path d="M1169.96 405.616V1051.27" stroke="#FF0000" stroke-width="2" stroke-linecap="round"/>
<path d="M1033.14 405.191H1169.85" stroke="#FF0000" stroke-width="2" stroke-linecap="round"/>
<path d="M1033.14 376.755V483.937" stroke="#FF0000" stroke-width="2" stroke-linecap="round"/>
<path d="M756.978 375.661H1033.14" stroke="#FF0000" stroke-width="2" stroke-linecap="round"/>
<path d="M758.208 375.661V481.75" stroke="#FF0000" stroke-width="2" stroke-linecap="round"/>
<path d="M622.59 401.91H756.568" stroke="#FF0000" stroke-width="2" stroke-linecap="round"/>
<path d="M621.496 375.115V484.484" stroke="#FF0000" stroke-width="2" stroke-linecap="round"/>
<path d="M345.885 374.021H620.949" stroke="#FF0000" stroke-width="2" stroke-linecap="round"/>
<path d="M346.515 481.766H1171.03" stroke="#00FF51" stroke-width="2" stroke-linecap="round"/>
<path d="M346.515 481.314V969.881" stroke="#00FF51" stroke-width="2" stroke-linecap="round"/>
<path d="M344.709 970.784H1169.22" stroke="#00FF51" stroke-width="2" stroke-linecap="round"/>
<path d="M621.051 484.024V969.881" stroke="#00FF51" stroke-width="2" stroke-linecap="round"/>
<path d="M759.223 483.121V970.784" stroke="#00FF51" stroke-width="2" stroke-linecap="round"/>
<path d="M1032.86 483.121V969.881" stroke="#00FF51" stroke-width="2" stroke-linecap="round"/>
</svg>
